<svg xmlns="http://www.w3.org/2000/svg" width="428" height="183.696" viewBox="0 0 428 183.696">
  <g id="Group_9336" data-name="Group 9336" transform="translate(1)">
    <path id="Subtraction_6" data-name="Subtraction 6" d="M1509.5-547c-23.85,0-47.683-.819-70.839-2.435-22.56-1.573-44.758-3.921-65.98-6.98-20.829-3-40.918-6.719-59.708-11.045-6.091-1.4-12.138-2.892-17.973-4.427V-730.7h428v159.071c-5.53,1.444-11.24,2.844-16.973,4.165-18.8,4.328-38.889,8.044-59.708,11.045-21.221,3.059-43.42,5.407-65.98,6.98C1557.184-547.819,1533.35-547,1509.5-547Z" transform="translate(-1296 730.696)" fill="#55bf98"/>
    <text id="Register" transform="translate(168 160)" fill="#fff" font-size="24" font-family="CenturyGothic-Bold, Century Gothic" font-weight="700"><tspan x="0" y="0">Register</tspan></text>
    <g id="Group_73" data-name="Group 73" transform="translate(26.103 -37.893)">
      <g id="Group_9" data-name="Group 9" transform="translate(138.898 65.589)">
        <g id="Group_1" data-name="Group 1" transform="translate(0 14.353)">
          <path id="Path_1" data-name="Path 1" d="M385.1,462.775a14.613,14.613,0,0,1,10.355,4.288l7.95,7.95v-5.375a12.777,12.777,0,0,0-3.742-9.034h0A22.306,22.306,0,0,0,364.3,487.04a21.882,21.882,0,0,0,2.74,3.957c.345.4.7.783,1.077,1.155l.191.191,11.645,11.645,20.7,20.7,2.754,2.754v-.885a24.473,24.473,0,0,0-7.167-17.3l-16.912-16.911L377.977,491l-3.229-3.23a14.639,14.639,0,0,1-3.22-4.865c-.177-.443-.33-.89-.465-1.347a14.635,14.635,0,0,1,14.036-18.78Zm52.974-8.985c-5.322-1.081-12.851,1.344-16.692,5.184h0a18.324,18.324,0,0,0-5.367,12.958v3.962l8.831-8.831a14.633,14.633,0,0,1,24.386,14.493,14.037,14.037,0,0,1-.465,1.347,14.571,14.571,0,0,1-3.22,4.865L442.314,491l-1.347,1.347-6.128,6.133-11.66,11.659a24.473,24.473,0,0,0-7.167,17.3h0l3.193-3.188,20.7-20.7,11.2-11.2.191-.191a22.158,22.158,0,0,0,6.51-15.774C457.809,466.419,451.221,456.461,438.072,453.789Z" transform="translate(-361.603 -453.531)" fill="#fff" fill-rule="evenodd"/>
          <path id="Path_2" data-name="Path 2" d="M453.189,485.28v6.547a19.157,19.157,0,0,1-1.673,1.4l-.192.144a106.887,106.887,0,0,1-84.072,0c-.515-.611-.926-1.132-1.205-1.517q-.565-.779-1.055-1.595a3.335,3.335,0,0,1-.48-1.711V485.28a125.593,125.593,0,0,0,88.676,0Z" transform="translate(-361.821 -455.909)" fill="#fff" fill-rule="evenodd"/>
        </g>
        <circle id="Ellipse_1" data-name="Ellipse 1" cx="9.571" cy="9.571" r="9.571" transform="translate(37.459)" fill="#fff"/>
      </g>
    </g>
  </g>
</svg>
